<svg id="visual" viewBox="0 0 960 300" width="960" height="300" xmlns="http://www.w3.org/2000/svg" xmlns:xlink="http://www.w3.org/1999/xlink" version="1.1"><rect x="0" y="0" width="960" height="300" fill="#065f46"></rect><g transform="translate(504.32861104924865 161.2378490744788)"><path d="M74.1 -91.8C89 -75.7 89.3 -45.8 86.9 -21C84.6 3.8 79.5 23.4 67.8 34.8C56.1 46.3 37.7 49.6 19.3 58.7C1 67.8 -17.3 82.8 -41.7 86.2C-66.1 89.7 -96.7 81.6 -115.4 60.9C-134.1 40.3 -140.9 7.1 -134.1 -22.2C-127.2 -51.6 -106.7 -77.1 -82 -91.4C-57.4 -105.8 -28.7 -108.9 0.4 -109.4C29.6 -109.9 59.1 -107.8 74.1 -91.8" fill="#05402f"></path></g></svg>