<svg id="visual" viewBox="0 0 960 300" width="960" height="300" xmlns="http://www.w3.org/2000/svg" xmlns:xlink="http://www.w3.org/1999/xlink" version="1.1"><rect x="0" y="0" width="960" height="300" fill="#065f46"></rect><g transform="translate(477.8956911304963 150.7261135756794)"><path d="M92.1 -128.2C110.6 -113.2 111 -74.7 122.2 -39.8C133.3 -5 155.1 26.2 152.8 54.7C150.5 83.1 124 108.7 94.5 121.6C65 134.5 32.5 134.8 -0.2 135C-32.9 135.3 -65.8 135.6 -92.9 121.9C-120 108.2 -141.3 80.5 -147.1 50.7C-152.8 20.8 -143 -11.2 -130.2 -39.7C-117.4 -68.2 -101.6 -93.2 -79.4 -107C-57.2 -120.7 -28.6 -123.4 4.1 -129C36.7 -134.6 73.5 -143.1 92.1 -128.2" fill="#05402f"></path></g></svg>