<svg id="visual" viewBox="0 0 960 300" width="960" height="300" xmlns="http://www.w3.org/2000/svg" xmlns:xlink="http://www.w3.org/1999/xlink" version="1.1"><rect x="0" y="0" width="960" height="300" fill="#202731"></rect><path d="M0 138L26.7 139.7C53.3 141.3 106.7 144.7 160 136.5C213.3 128.3 266.7 108.7 320 107.2C373.3 105.7 426.7 122.3 480 128.3C533.3 134.3 586.7 129.7 640 121.2C693.3 112.7 746.7 100.3 800 108.3C853.3 116.3 906.7 144.7 933.3 158.8L960 173L960 301L933.3 301C906.7 301 853.3 301 800 301C746.7 301 693.3 301 640 301C586.7 301 533.3 301 480 301C426.7 301 373.3 301 320 301C266.7 301 213.3 301 160 301C106.7 301 53.3 301 26.7 301L0 301Z" fill="#fa7268"></path><path d="M0 153L26.7 156.2C53.3 159.3 106.7 165.7 160 173.5C213.3 181.3 266.7 190.7 320 184.2C373.3 177.7 426.7 155.3 480 154.8C533.3 154.3 586.7 175.7 640 177C693.3 178.3 746.7 159.7 800 159.7C853.3 159.7 906.7 178.3 933.3 187.7L960 197L960 301L933.3 301C906.7 301 853.3 301 800 301C746.7 301 693.3 301 640 301C586.7 301 533.3 301 480 301C426.7 301 373.3 301 320 301C266.7 301 213.3 301 160 301C106.7 301 53.3 301 26.7 301L0 301Z" fill="#f6675d"></path><path d="M0 174L26.7 178C53.3 182 106.7 190 160 195.8C213.3 201.7 266.7 205.3 320 204.8C373.3 204.3 426.7 199.7 480 191.3C533.3 183 586.7 171 640 161.5C693.3 152 746.7 145 800 147.3C853.3 149.7 906.7 161.3 933.3 167.2L960 173L960 301L933.3 301C906.7 301 853.3 301 800 301C746.7 301 693.3 301 640 301C586.7 301 533.3 301 480 301C426.7 301 373.3 301 320 301C266.7 301 213.3 301 160 301C106.7 301 53.3 301 26.7 301L0 301Z" fill="#f15c52"></path><path d="M0 179L26.7 180.2C53.3 181.3 106.7 183.7 160 189C213.3 194.3 266.7 202.7 320 207.2C373.3 211.7 426.7 212.3 480 206C533.3 199.7 586.7 186.3 640 190C693.3 193.7 746.7 214.3 800 217.2C853.3 220 906.7 205 933.3 197.5L960 190L960 301L933.3 301C906.7 301 853.3 301 800 301C746.7 301 693.3 301 640 301C586.7 301 533.3 301 480 301C426.7 301 373.3 301 320 301C266.7 301 213.3 301 160 301C106.7 301 53.3 301 26.7 301L0 301Z" fill="#ec5047"></path><path d="M0 239L26.7 232.3C53.3 225.7 106.7 212.3 160 206.7C213.3 201 266.7 203 320 211.8C373.3 220.7 426.7 236.3 480 237.2C533.3 238 586.7 224 640 220.2C693.3 216.3 746.7 222.7 800 227.5C853.3 232.3 906.7 235.7 933.3 237.3L960 239L960 301L933.3 301C906.7 301 853.3 301 800 301C746.7 301 693.3 301 640 301C586.7 301 533.3 301 480 301C426.7 301 373.3 301 320 301C266.7 301 213.3 301 160 301C106.7 301 53.3 301 26.7 301L0 301Z" fill="#e7443c"></path><path d="M0 244L26.7 246.5C53.3 249 106.7 254 160 254.7C213.3 255.3 266.7 251.7 320 247.8C373.3 244 426.7 240 480 239C533.3 238 586.7 240 640 238.8C693.3 237.7 746.7 233.3 800 236C853.3 238.7 906.7 248.3 933.3 253.2L960 258L960 301L933.3 301C906.7 301 853.3 301 800 301C746.7 301 693.3 301 640 301C586.7 301 533.3 301 480 301C426.7 301 373.3 301 320 301C266.7 301 213.3 301 160 301C106.7 301 53.3 301 26.7 301L0 301Z" fill="#e23631"></path><path d="M0 255L26.7 254.5C53.3 254 106.7 253 160 254.5C213.3 256 266.7 260 320 262.7C373.3 265.3 426.7 266.7 480 264.5C533.3 262.3 586.7 256.7 640 254.5C693.3 252.3 746.7 253.7 800 253.2C853.3 252.7 906.7 250.3 933.3 249.2L960 248L960 301L933.3 301C906.7 301 853.3 301 800 301C746.7 301 693.3 301 640 301C586.7 301 533.3 301 480 301C426.7 301 373.3 301 320 301C266.7 301 213.3 301 160 301C106.7 301 53.3 301 26.7 301L0 301Z" fill="#dc2626"></path></svg>